Coordinates
version=1
nRows=11
nColumns=36
inDegrees=yes

Units are S.I. units (second, meters, Newtons, ...)
If the header above contains a line with 'inDegrees', this indicates whether rotational values are in degrees (yes) or radians (no).

endheader
time	pelvis_tilt	pelvis_list	pelvis_rotation	pelvis_tx	pelvis_ty	pelvis_tz	hip_flexion_r	hip_adduction_r	hip_rotation_r	knee_angle_r	knee_angle_r_beta	ankle_angle_r	subtalar_angle_r	mtp_angle_r	hip_flexion_l	hip_adduction_l	hip_rotation_l	knee_angle_l	knee_angle_l_beta	ankle_angle_l	subtalar_angle_l	mtp_angle_l	lumbar_extension	lumbar_bending	lumbar_rotation	arm_flex_r	arm_add_r	arm_rot_r	elbow_flex_r	pro_sup_r	arm_flex_l	arm_add_l	arm_rot_l	elbow_flex_l	pro_sup_l
      3.64166670	     -4.60302518	      0.85488683	      0.97257280	      0.28769072	      1.07270586	     -0.02871649	     10.37342083	     -3.32231553	     -9.32108153	     18.00922813	      0.31432033	     13.99177572	     -2.06925420	     -7.49999987	     11.48820539	     -3.46684055	     -0.78731855	     16.10417725	      0.28107092	      8.23507593	     -2.44247271	     -7.49999987	    -11.63357007	      0.64929406	      0.15185499	     -3.47290232	    -10.46595033	      2.12332407	     49.53728012	     87.21959945	     -0.19753400	    -10.34848207	      3.45410716	     56.56289738	     97.02062474
      3.64583330	     -4.55622123	      0.90186024	      0.94493439	      0.28980780	      1.07860131	     -0.02959065	      9.86918801	     -3.24993844	     -9.25596460	     17.15467696	      0.29940560	     13.52626825	     -2.19242093	     -7.49999987	     10.96383705	     -3.43918792	     -0.89992778	     15.25044853	      0.26617054	      7.78133890	     -2.19555262	     -7.49999987	    -11.63713724	      0.63002895	      0.23105739	     -3.57217316	    -10.47302969	      2.11300893	     49.54726981	     87.41998495	     -0.22913421	    -10.37586818	      3.68651659	     56.61623590	     97.40064284
      3.65000000	     -4.56877136	      0.85243276	      0.92320396	      0.29105741	      1.07207438	     -0.02920415	      9.64037935	     -3.06273355	     -9.04347090	     16.65094403	      0.29061380	     13.42935882	     -2.29841561	     -7.49999987	     10.67727091	     -3.53617347	     -0.98234714	     14.80731734	      0.25843644	      7.71648302	     -2.06817646	     -7.49999987	    -11.57751836	      0.66526070	      0.29938977	     -3.66626760	    -10.48621786	      2.19603775	     49.58236616	     86.86237990	     -0.27177323	    -10.39175938	      3.96220180	     56.64565567	     96.62977267
      3.65416670	     -4.69631788	      0.82525742	      0.89212599	      0.29176422	      1.07559950	     -0.03087235	      9.45306405	     -2.94505076	     -8.86276482	     16.05490483	      0.28021095	     13.02266849	     -2.27758559	     -7.49999987	     10.43416515	     -3.54697364	     -1.15892872	     14.22109066	      0.24820486	      7.45501585	     -1.77822583	     -7.49999987	    -11.21914099	      0.75656473	      0.34172731	     -3.90959060	    -10.57625784	      2.26215724	     49.73648902	     85.05556595	     -0.46207165	    -10.29958445	      4.24085293	     56.64703313	     94.85733728
      3.65833330	     -4.48351044	      0.81116078	      0.82491243	      0.29297754	      1.07692561	     -0.02980511	      8.87486899	     -2.82706005	     -8.73920099	     15.42101209	      0.26914743	     12.91579265	     -2.13053124	     -7.49999987	      9.72740282	     -3.55913416	     -1.20327657	     13.49518901	      0.23553548	      7.34580316	     -1.61555652	     -7.49999987	    -11.36823805	      0.75864881	      0.49618478	     -3.93019445	    -10.63060687	      2.46234153	     49.55689470	     84.97798460	     -0.38626332	    -10.30153393	      4.56337954	     56.49784594	     95.19210872
      3.66250000	     -4.48518447	      0.78599247	      0.72251236	      0.29243903	      1.07373329	     -0.02901116	      8.63425162	     -2.71279798	     -8.64537400	     14.93362627	      0.26064095	     12.80140507	     -2.11709991	     -7.49999987	      9.32129537	     -3.55578550	     -1.19836271	     12.81974580	      0.22374677	      7.20868116	     -1.70042847	     -7.49999987	    -11.26736877	      0.74345753	      0.71904273	     -4.15964968	    -10.76733782	      2.65263950	     49.71491126	     85.09883493	     -0.42456467	    -10.42684737	      5.14839777	     56.61214411	     95.29408272
      3.66666670	     -4.53702583	      0.77141157	      0.65258197	      0.29260985	      1.07673914	     -0.02900516	      8.40983233	     -2.62485349	     -8.64894443	     14.36181965	      0.25066104	     12.49851655	     -2.20076764	     -7.49999987	      9.02099487	     -3.56055469	     -1.24481804	     12.24022086	      0.21363216	      7.07673644	     -1.55670156	     -7.49999987	    -11.08384785	      0.74876298	      0.80546544	     -4.27989341	    -10.73435625	      2.58567383	     49.60380501	     84.04004844	     -0.49246219	    -10.34747873	      5.16909247	     56.43437430	     94.13623004
      3.67083330	     -4.74384858	      0.76537275	      0.52431648	      0.29225952	      1.08044403	     -0.02731182	      8.37742239	     -2.50861806	     -8.65753259	     13.78326757	      0.24056340	     12.16380048	     -2.06795372	     -7.49999987	      8.88342681	     -3.57467912	     -1.32215457	     11.61036691	      0.20263913	      6.71614511	     -1.52553349	     -7.49999987	    -10.75959166	      0.71519676	      0.93385107	     -4.40398047	    -10.72869706	      2.60196258	     49.60471491	     84.20971894	     -0.63638566	    -10.37701241	      5.20231131	     56.45897534	     94.41011672
      3.67500000	     -4.73755832	      0.75678564	      0.42298993	      0.29257508	      1.07800294	     -0.02778856	      8.09270475	     -2.39248344	     -8.50259388	     13.17609511	      0.22996624	     11.85410962	     -2.05185826	     -7.49999987	      8.56575512	     -3.55843352	     -1.24832881	     11.04834627	      0.19283002	      6.33798647	     -1.82185546	     -7.49999987	    -10.71952871	      0.73627364	      1.14628964	     -4.56175707	    -10.67231499	      2.00449652	     49.61419454	     87.59229854	     -0.59177014	    -10.31923198	      4.92221259	     56.37797646	     99.56468011
      3.67916670	     -4.82227901	      0.75203641	      0.29164719	      0.29181666	      1.07760540	     -0.02975147	      8.00215942	     -2.35319715	     -8.46679394	     12.73071143	      0.22219283	     11.58345153	     -2.03670323	     -7.49999987	      8.38291304	     -3.50250877	     -1.27053359	     10.52898958	      0.18376554	      6.05058675	     -1.93295374	     -7.49999987	    -10.61494878	      0.77943487	      1.22285680	     -4.58729340	    -10.76264701	      2.10591680	     49.67241344	     86.75958012	     -0.66709513	    -10.29063572	      5.02754228	     56.42139680	     99.14409802
      3.68333330	     -4.89049520	      0.73015231	      0.21801281	      0.29356085	      1.07787721	     -0.02890731	      7.85378762	     -2.28572937	     -8.42522903	     12.31379648	      0.21491629	     11.26142065	     -2.03732918	     -7.49999987	      8.18135769	     -3.48734663	     -1.34094574	     10.04727901	      0.17535810	      5.83935965	     -1.87071107	     -7.49999987	    -10.45953434	      0.82799758	      1.27154622	     -4.70123490	    -10.82402787	      2.23786008	     49.76536009	     84.65114329	     -0.77160344	    -10.27519066	      5.25027061	     56.41614453	     97.35123355
